<svg width="1128" height="709" viewBox="0 0 1128 709" fill="none" xmlns="http://www.w3.org/2000/svg">
<path d="M17 719.5C256.147 401.811 400.853 268.99 686.5 149.5C669.129 89.8671 663.475 56.9905 665.5 0" stroke="#E8E5FF" stroke-width="159"/>
<path d="M17 719.5C256.147 401.811 400.853 268.99 686.5 149.5C669.129 89.8671 663.475 56.9905 665.5 0" stroke="url(#paint0_linear_146_1551)" stroke-width="159"/>
<path d="M902.039 154.619C945.18 175.289 975.685 205.383 991.603 234.281C1007.6 263.316 1006.67 285.709 999.848 299.942C993.028 314.175 976.159 328.931 943.509 334.659C911.013 340.36 868.445 335.443 825.304 314.773C782.163 294.103 751.659 264.009 735.74 235.11C719.746 206.076 720.676 183.683 727.496 169.45C734.315 155.216 751.184 140.461 783.834 134.733C816.33 129.031 858.898 133.949 902.039 154.619Z" stroke="url(#paint1_linear_146_1551)" stroke-width="134" style="mix-blend-mode:darken"/>
<defs>
<linearGradient id="paint0_linear_146_1551" x1="351.75" y1="0" x2="351.75" y2="719.5" gradientUnits="userSpaceOnUse">
<stop stop-color="#FCD8A5"/>
<stop offset="1" stop-color="#F4B860"/>
</linearGradient>
<linearGradient id="paint1_linear_146_1551" x1="879.497" y1="190" x2="690.497" y2="170" gradientUnits="userSpaceOnUse">
<stop stop-color="#F5BA65"/>
<stop offset="1" stop-color="#F6D39D"/>
</linearGradient>
</defs>
</svg>
